<?xml version="1.0" encoding="UTF-8"?>
<svg id="Layer_1" xmlns="http://www.w3.org/2000/svg" version="1.1" viewBox="0 0 608.4 220.57">
  <!-- Generator: Adobe Illustrator 29.4.0, SVG Export Plug-In . SVG Version: 2.1.0 Build 152)  -->
  <defs>
    <style>
      .st0 {
        fill: #463033;
      }
    </style>
  </defs>
  <g>
    <path class="st0" d="M65.1,127.36l-15.82,45.13h-16l43.51-124.23h10.25v16.36c2.99,16.42,10.31,34.76,21.93,55.01,1.56,2.76,4.01,6.59,7.37,11.51,4.55,6.71,8.18,13.34,10.88,19.87,2.7,6.54,4.16,13.69,4.4,21.48h-15.46c1.56-17.5.24-30.32-3.96-38.47-.96-1.8-2.4-4.01-4.31-6.65h-42.79ZM83.98,73.43l-17.62,50.16h39.01c-.24-.48-.54-.96-.9-1.44-9.83-17.38-16.66-33.62-20.5-48.72Z"/>
    <path class="st0" d="M154.09,170.51h-15.1V46.28h15.1v124.23Z"/>
    <path class="st0" d="M297.57,125.39v45.13h-15.1v-45.49c.12-3.11.15-5.69.09-7.73-.06-2.04-.18-4.61-.36-7.73-.18-3.12-.51-5.63-.99-7.55-.48-1.92-1.08-3.87-1.8-5.84s-1.71-3.44-2.97-4.41c-1.26-.96-2.73-1.44-4.4-1.44-2.4,0-4.83.72-7.28,2.16-2.46,1.44-4.4,2.88-5.84,4.32-1.44,1.44-3.36,3.54-5.75,6.29-5.28,5.99-9.41,9.65-12.4,10.97.36,3.48.54,7.25.54,11.33v45.13h-15.1v-53.22c0-2.04-.09-4.61-.27-7.73-.18-3.12-.51-5.63-.99-7.55-.48-1.92-1.08-3.87-1.8-5.84-.72-1.98-1.71-3.48-2.97-4.5-1.26-1.02-2.73-1.47-4.4-1.35-2.4,0-4.83.72-7.28,2.16-2.46,1.44-4.41,2.88-5.84,4.32-1.44,1.44-3.42,3.54-5.93,6.29-5.03,5.75-8.99,9.35-11.87,10.79v56.63h-15.1v-79.11h15.1v18.16c2.04-1.32,5.09-4.32,9.17-8.99,2.63-2.99,4.73-5.27,6.29-6.83,1.56-1.56,3.8-3.15,6.74-4.76,2.94-1.62,5.84-2.43,8.72-2.43,6.95,0,12.46,2.04,16.54,6.11,3.96,3.96,6.59,9.77,7.91,17.44,2.27-1.32,5.63-4.49,10.07-9.53,2.63-2.99,4.73-5.27,6.29-6.83,1.56-1.56,3.8-3.15,6.74-4.76,2.94-1.62,5.84-2.43,8.72-2.43,6.95,0,12.52,2.04,16.72,6.11,5.99,6.11,8.93,17.02,8.81,32.72Z"/>
    <path class="st0" d="M400.66,121.97c-.12-11.99-3.41-20.88-9.89-26.69-6.45-5.81-16.23-8.71-29.3-8.71-7.42,0-13.9.92-19.41,2.79-5.51,1.84-9.68,4.24-12.49,7.17-2.84,2.95-4.86,5.88-6.13,8.83-1.24,2.93-1.87,5.83-1.87,8.71l14.91-.18c0-1.08.07-2.24.18-3.5.12-1.27.62-3.27,1.52-6.02.9-2.77,2.12-5.14,3.69-7.1,1.54-1.98,4.03-3.71,7.47-5.21,3.41-1.5,7.45-2.07,12.13-1.73,5.99.25,10.93,2.56,14.85,6.94,3.87,4.38,6.55,9.68,8,15.91,0,0,.58,1.94.9,4.13,0,.07.02.14.02.21.07.55.12,1.08.16,1.59v.16c.12,1.08.16,2.1.16,3.09.12,7.31.12,18.33,0,33.08-1.2,2.03-2.58,3.83-4.13,5.39-6.36,6.48-16.55,9.7-30.57,9.7-2.65,0-4.98-.12-7.01-.37-2.05-.23-4.31-.76-6.85-1.61-2.51-.83-4.59-1.98-6.2-3.41-1.61-1.43-2.95-3.48-4.03-6.11-1.08-2.65-1.61-5.76-1.61-9.36,0-7.91,3.37-13.74,10.14-17.52,4.94-2.75,11.77-5.07,20.51-6.97.88-.19,1.4-1.13,1.05-1.96h0c-.52-1.25-1.82-1.97-3.15-1.72-2.08.38-5.25.99-7.97,1.57-4.5.97-8.09,1.89-10.79,2.79-2.7.9-5.83,2.14-9.36,3.78-3.53,1.61-6.29,3.3-8.28,5.03-1.96,1.73-3.69,3.9-5.12,6.48-1.43,2.58-2.17,5.3-2.17,8.18,0,7.79,3.6,13.85,10.79,18.23,7.19,4.38,17.22,6.62,30.04,6.75h.18c14.85,0,25.89-3.6,33.08-10.79.48-.48.95-1.01,1.43-1.61v8.62h15.1c.12-21.09.12-37.27,0-48.55Z"/>
    <path class="st0" d="M453.98,86.37c8.39,0,14.95,2.46,19.69,7.37,4.73,4.92,7.1,11.69,7.1,20.32l-15.1.18c0-2.52-.18-5.03-.54-7.55-.36-2.52-.96-5.03-1.8-7.55-.84-2.52-2.07-4.61-3.69-6.29-1.62-1.68-3.51-2.58-5.66-2.7-2.64-.12-5.19.39-7.64,1.53-2.46,1.14-4.44,2.4-5.93,3.78-1.5,1.38-3.15,3.48-4.94,6.29-1.8,2.82-3.06,4.94-3.78,6.38-.72,1.44-1.86,3.72-3.42,6.83,0,.12-.06.36-.18.72v54.84h-15.1v-79.11h15.1v15.64c3.12-6.11,6.71-11.08,10.79-14.92,4.07-3.83,9.11-5.75,15.1-5.75Z"/>
    <path class="st0" d="M535.42,170.33c5.63-.24,10.76-2.73,15.37-7.46,4.61-4.73,6.92-9.74,6.92-15.01h14.92c0,6.83-3.18,12.92-9.53,18.25-6.35,5.33-15.52,8-27.51,8-11.51-.12-20.05-1.2-25.62-3.24-5.57-2.04-10.1-4.79-13.57-8.27-7.43-7.31-10.91-16.36-10.43-27.15.72-14.02,4.97-25.29,12.77-33.8,7.79-8.51,18.52-13.54,32.18-15.1,10.55-1.08,19.48-.03,26.79,3.15,7.31,3.18,12.58,7.46,15.82,12.86,2.04,3.24,3.06,7.07,3.06,11.51,0,11.75-13.07,19.84-39.19,24.27-.84.12-2.4.36-4.67.72-8.51,1.44-15.01,2.73-19.51,3.87-4.49,1.14-7.94,2.61-10.34,4.4,2.27,7.19,6.32,12.89,12.13,17.08,5.81,4.2,12.61,6.17,20.41,5.93ZM501.08,135.09c0,2.88.3,5.64.9,8.27,2.04-1.32,4.79-2.49,8.27-3.51,3.47-1.02,6.62-1.8,9.44-2.34,2.82-.54,6.92-1.29,12.32-2.25,2.16-.36,3.78-.6,4.85-.72,8.39-1.44,14.8-3.89,19.24-7.37,4.43-3.47,6.35-8.03,5.75-13.66-.48-5.75-3.57-11.21-9.26-16.36-5.69-5.15-12.8-7.43-21.3-6.83-7.67.6-14.62,5.12-20.86,13.57-6.23,8.45-9.35,18.85-9.35,31.19Z"/>
  </g>
  <ellipse class="st0" cx="337.48" cy="152.29" rx="3.97" ry="5.8"/>
</svg>