<svg xmlns="http://www.w3.org/2000/svg" xmlns:xlink="http://www.w3.org/1999/xlink" width="2000" zoomAndPan="magnify" viewBox="0 0 1500 1499.999933" height="2000" preserveAspectRatio="xMidYMid meet" version="1.0"><defs><g/><clipPath id="2f638adf74"><path d="M 388.140625 522 L 728.640625 522 L 728.640625 904 L 388.140625 904 Z M 388.140625 522 " clip-rule="nonzero"/></clipPath><clipPath id="3679703271"><rect x="0" width="440" y="0" height="149"/></clipPath></defs><g clip-path="url(#2f638adf74)"><path fill="#571a8b" d="M 578.972656 903.929688 C 473.746094 903.929688 388.140625 818.324219 388.140625 713.097656 C 388.140625 607.878906 473.746094 522.277344 578.972656 522.277344 C 632.007812 522.277344 683.085938 544.617188 719.101562 583.574219 L 728.863281 594.128906 L 654.972656 662.460938 L 645.203125 651.90625 C 627.925781 633.214844 604.398438 622.925781 578.972656 622.925781 C 529.242188 622.925781 488.789062 663.378906 488.789062 713.097656 C 488.789062 739.996094 500.726562 765.3125 521.53125 782.554688 L 503.175781 804.695312 C 475.761719 781.96875 460.035156 748.585938 460.035156 713.097656 C 460.035156 647.519531 513.390625 594.167969 578.972656 594.167969 C 607.664062 594.167969 634.507812 604.097656 655.9375 622.394531 L 687.753906 592.972656 C 658.105469 566.171875 619.207031 551.035156 578.972656 551.035156 C 489.605469 551.035156 416.902344 623.730469 416.902344 713.097656 C 416.902344 802.464844 489.605469 875.167969 578.972656 875.167969 C 613.089844 875.167969 645.746094 864.679688 673.394531 844.832031 C 680.800781 839.519531 687.820312 833.519531 694.273438 826.988281 L 714.730469 847.191406 C 707.148438 854.875 698.878906 861.941406 690.15625 868.195312 C 657.597656 891.570312 619.152344 903.929688 578.972656 903.929688 " fill-opacity="1" fill-rule="nonzero"/></g><g transform="matrix(1, 0, 0, 1, 530, 662)"><g clip-path="url(#3679703271)"><g fill="#000000" fill-opacity="1"><g transform="translate(0.487468, 106.664664)"><g><path d="M 2.75 -49.25 C 2.75 -63.476562 7.59375 -75.519531 17.28125 -85.375 C 26.976562 -95.226562 38.664062 -100.15625 52.34375 -100.15625 C 66.09375 -100.15625 77.773438 -95.242188 87.390625 -85.421875 C 97.015625 -75.609375 101.828125 -63.550781 101.828125 -49.25 C 101.828125 -34.851562 97.097656 -22.75 87.640625 -12.9375 C 78.179688 -3.125 66.414062 1.78125 52.34375 1.78125 C 37.957031 1.78125 26.09375 -3.082031 16.75 -12.8125 C 7.414062 -22.550781 2.75 -34.695312 2.75 -49.25 Z M 26.953125 -49.25 C 26.953125 -44.082031 27.742188 -39.367188 29.328125 -35.109375 C 30.921875 -30.859375 33.703125 -27.257812 37.671875 -24.3125 C 41.648438 -21.375 46.539062 -19.90625 52.34375 -19.90625 C 60.6875 -19.90625 66.984375 -22.765625 71.234375 -28.484375 C 75.492188 -34.210938 77.625 -41.132812 77.625 -49.25 C 77.625 -57.269531 75.457031 -64.160156 71.125 -69.921875 C 66.789062 -75.691406 60.53125 -78.578125 52.34375 -78.578125 C 44.238281 -78.578125 37.976562 -75.691406 33.5625 -69.921875 C 29.15625 -64.160156 26.953125 -57.269531 26.953125 -49.25 Z M 26.953125 -49.25 "/></g></g></g><g fill="#000000" fill-opacity="1"><g transform="translate(105.041601, 106.664664)"><g><path d="M 88.46875 0 L 83.828125 -58.3125 L 83.21875 -58.3125 L 63.078125 -0.59375 L 49.71875 -0.59375 L 29.5625 -58.3125 L 28.96875 -58.3125 L 24.328125 0 L 1.90625 0 L 10.734375 -98.375 L 34.578125 -98.375 L 56.390625 -41.609375 L 78.21875 -98.375 L 102.0625 -98.375 L 110.890625 0 Z M 88.46875 0 "/></g></g></g><g fill="#000000" fill-opacity="1"><g transform="translate(217.821777, 106.664664)"><g><path d="M 88.46875 0 L 83.828125 -58.3125 L 83.21875 -58.3125 L 63.078125 -0.59375 L 49.71875 -0.59375 L 29.5625 -58.3125 L 28.96875 -58.3125 L 24.328125 0 L 1.90625 0 L 10.734375 -98.375 L 34.578125 -98.375 L 56.390625 -41.609375 L 78.21875 -98.375 L 102.0625 -98.375 L 110.890625 0 Z M 88.46875 0 "/></g></g></g><g fill="#1d5b16" fill-opacity="1"><g transform="translate(330.60978, 106.664664)"><g><path d="M 29.5625 -98.375 L 29.5625 0 L 7.15625 0 L 7.15625 -98.375 Z M 29.5625 -98.375 "/></g></g></g><g fill="#1d5b16" fill-opacity="1"><g transform="translate(367.32891, 106.664664)"><g><path d="M 0.953125 -78.6875 L 0.953125 -98.375 L 70.109375 -98.375 L 70.109375 -78.6875 L 46.734375 -78.6875 L 46.734375 0 L 24.328125 0 L 24.328125 -78.6875 Z M 0.953125 -78.6875 "/></g></g></g></g></g><g fill="#000000" fill-opacity="1"><g transform="translate(761.988073, 610.635983)"><g><path d="M 12.375 -5.34375 C 12.375 -6.132812 12.09375 -6.738281 11.53125 -7.15625 C 10.96875 -7.582031 9.957031 -8.03125 8.5 -8.5 C 7.050781 -8.96875 5.90625 -9.429688 5.0625 -9.890625 C 2.75 -11.140625 1.59375 -12.820312 1.59375 -14.9375 C 1.59375 -16.039062 1.898438 -17.019531 2.515625 -17.875 C 3.140625 -18.738281 4.03125 -19.410156 5.1875 -19.890625 C 6.351562 -20.378906 7.65625 -20.625 9.09375 -20.625 C 10.550781 -20.625 11.847656 -20.359375 12.984375 -19.828125 C 14.117188 -19.304688 15 -18.566406 15.625 -17.609375 C 16.257812 -16.648438 16.578125 -15.5625 16.578125 -14.34375 L 12.390625 -14.34375 C 12.390625 -15.269531 12.09375 -15.992188 11.5 -16.515625 C 10.914062 -17.035156 10.09375 -17.296875 9.03125 -17.296875 C 8 -17.296875 7.195312 -17.078125 6.625 -16.640625 C 6.0625 -16.203125 5.78125 -15.628906 5.78125 -14.921875 C 5.78125 -14.265625 6.113281 -13.710938 6.78125 -13.265625 C 7.445312 -12.816406 8.429688 -12.394531 9.734375 -12 C 12.117188 -11.289062 13.851562 -10.40625 14.9375 -9.34375 C 16.03125 -8.28125 16.578125 -6.957031 16.578125 -5.375 C 16.578125 -3.601562 15.910156 -2.21875 14.578125 -1.21875 C 13.242188 -0.21875 11.453125 0.28125 9.203125 0.28125 C 7.628906 0.28125 6.195312 -0.00390625 4.90625 -0.578125 C 3.625 -1.148438 2.644531 -1.9375 1.96875 -2.9375 C 1.300781 -3.9375 0.96875 -5.09375 0.96875 -6.40625 L 5.171875 -6.40625 C 5.171875 -4.15625 6.515625 -3.03125 9.203125 -3.03125 C 10.191406 -3.03125 10.96875 -3.234375 11.53125 -3.640625 C 12.09375 -4.046875 12.375 -4.613281 12.375 -5.34375 Z M 12.375 -5.34375 "/></g></g></g><g fill="#000000" fill-opacity="1"><g transform="translate(783.188068, 610.635983)"><g><path d="M 18.53125 -9.71875 C 18.53125 -7.707031 18.175781 -5.945312 17.46875 -4.4375 C 16.757812 -2.9375 15.742188 -1.773438 14.421875 -0.953125 C 13.109375 -0.128906 11.597656 0.28125 9.890625 0.28125 C 8.203125 0.28125 6.695312 -0.125 5.375 -0.9375 C 4.050781 -1.75 3.023438 -2.90625 2.296875 -4.40625 C 1.578125 -5.914062 1.210938 -7.648438 1.203125 -9.609375 L 1.203125 -10.609375 C 1.203125 -12.609375 1.5625 -14.367188 2.28125 -15.890625 C 3.007812 -17.421875 4.03125 -18.59375 5.34375 -19.40625 C 6.664062 -20.21875 8.171875 -20.625 9.859375 -20.625 C 11.554688 -20.625 13.0625 -20.21875 14.375 -19.40625 C 15.695312 -18.59375 16.71875 -17.421875 17.4375 -15.890625 C 18.164062 -14.367188 18.53125 -12.613281 18.53125 -10.625 Z M 14.28125 -10.640625 C 14.28125 -12.773438 13.898438 -14.394531 13.140625 -15.5 C 12.378906 -16.601562 11.289062 -17.15625 9.875 -17.15625 C 8.457031 -17.15625 7.367188 -16.609375 6.609375 -15.515625 C 5.847656 -14.421875 5.460938 -12.816406 5.453125 -10.703125 L 5.453125 -9.71875 C 5.453125 -7.632812 5.832031 -6.019531 6.59375 -4.875 C 7.363281 -3.726562 8.460938 -3.15625 9.890625 -3.15625 C 11.296875 -3.15625 12.375 -3.707031 13.125 -4.8125 C 13.882812 -5.914062 14.269531 -7.523438 14.28125 -9.640625 Z M 14.28125 -10.640625 "/></g></g></g><g fill="#000000" fill-opacity="1"><g transform="translate(806.553915, 610.635983)"><g><path d="M 6.015625 -3.375 L 14.90625 -3.375 L 14.90625 0 L 1.8125 0 L 1.8125 -20.34375 L 6.015625 -20.34375 Z M 6.015625 -3.375 "/></g></g></g><g fill="#000000" fill-opacity="1"><g transform="translate(825.657924, 610.635983)"><g><path d="M 17.21875 -20.34375 L 17.21875 -6.953125 C 17.21875 -4.722656 16.519531 -2.957031 15.125 -1.65625 C 13.738281 -0.363281 11.835938 0.28125 9.421875 0.28125 C 7.046875 0.28125 5.15625 -0.347656 3.75 -1.609375 C 2.351562 -2.867188 1.644531 -4.597656 1.625 -6.796875 L 1.625 -20.34375 L 5.8125 -20.34375 L 5.8125 -6.921875 C 5.8125 -5.585938 6.128906 -4.613281 6.765625 -4 C 7.410156 -3.394531 8.296875 -3.09375 9.421875 -3.09375 C 11.773438 -3.09375 12.972656 -4.332031 13.015625 -6.8125 L 13.015625 -20.34375 Z M 17.21875 -20.34375 "/></g></g></g><g fill="#000000" fill-opacity="1"><g transform="translate(848.101538, 610.635983)"><g><path d="M 17.796875 -6.78125 C 17.640625 -4.59375 16.832031 -2.867188 15.375 -1.609375 C 13.914062 -0.347656 11.992188 0.28125 9.609375 0.28125 C 6.992188 0.28125 4.9375 -0.59375 3.4375 -2.34375 C 1.945312 -4.101562 1.203125 -6.519531 1.203125 -9.59375 L 1.203125 -10.828125 C 1.203125 -12.785156 1.546875 -14.507812 2.234375 -16 C 2.921875 -17.488281 3.90625 -18.628906 5.1875 -19.421875 C 6.46875 -20.222656 7.957031 -20.625 9.65625 -20.625 C 12.007812 -20.625 13.898438 -19.992188 15.328125 -18.734375 C 16.765625 -17.484375 17.597656 -15.722656 17.828125 -13.453125 L 13.625 -13.453125 C 13.519531 -14.765625 13.15625 -15.710938 12.53125 -16.296875 C 11.90625 -16.890625 10.945312 -17.1875 9.65625 -17.1875 C 8.257812 -17.1875 7.210938 -16.6875 6.515625 -15.6875 C 5.828125 -14.6875 5.472656 -13.132812 5.453125 -11.03125 L 5.453125 -9.484375 C 5.453125 -7.285156 5.785156 -5.675781 6.453125 -4.65625 C 7.117188 -3.644531 8.171875 -3.140625 9.609375 -3.140625 C 10.898438 -3.140625 11.863281 -3.4375 12.5 -4.03125 C 13.132812 -4.625 13.5 -5.539062 13.59375 -6.78125 Z M 17.796875 -6.78125 "/></g></g></g><g fill="#000000" fill-opacity="1"><g transform="translate(870.433365, 610.635983)"><g><path d="M 6.28125 0 L 2.078125 0 L 2.078125 -20.34375 L 6.28125 -20.34375 Z M 6.28125 0 "/></g></g></g><g fill="#000000" fill-opacity="1"><g transform="translate(882.383078, 610.635983)"><g><path d="M 18.53125 -9.71875 C 18.53125 -7.707031 18.175781 -5.945312 17.46875 -4.4375 C 16.757812 -2.9375 15.742188 -1.773438 14.421875 -0.953125 C 13.109375 -0.128906 11.597656 0.28125 9.890625 0.28125 C 8.203125 0.28125 6.695312 -0.125 5.375 -0.9375 C 4.050781 -1.75 3.023438 -2.90625 2.296875 -4.40625 C 1.578125 -5.914062 1.210938 -7.648438 1.203125 -9.609375 L 1.203125 -10.609375 C 1.203125 -12.609375 1.5625 -14.367188 2.28125 -15.890625 C 3.007812 -17.421875 4.03125 -18.59375 5.34375 -19.40625 C 6.664062 -20.21875 8.171875 -20.625 9.859375 -20.625 C 11.554688 -20.625 13.0625 -20.21875 14.375 -19.40625 C 15.695312 -18.59375 16.71875 -17.421875 17.4375 -15.890625 C 18.164062 -14.367188 18.53125 -12.613281 18.53125 -10.625 Z M 14.28125 -10.640625 C 14.28125 -12.773438 13.898438 -14.394531 13.140625 -15.5 C 12.378906 -16.601562 11.289062 -17.15625 9.875 -17.15625 C 8.457031 -17.15625 7.367188 -16.609375 6.609375 -15.515625 C 5.847656 -14.421875 5.460938 -12.816406 5.453125 -10.703125 L 5.453125 -9.71875 C 5.453125 -7.632812 5.832031 -6.019531 6.59375 -4.875 C 7.363281 -3.726562 8.460938 -3.15625 9.890625 -3.15625 C 11.296875 -3.15625 12.375 -3.707031 13.125 -4.8125 C 13.882812 -5.914062 14.269531 -7.523438 14.28125 -9.640625 Z M 14.28125 -10.640625 "/></g></g></g><g fill="#000000" fill-opacity="1"><g transform="translate(905.748925, 610.635983)"><g><path d="M 18.359375 0 L 14.171875 0 L 6.015625 -13.390625 L 6.015625 0 L 1.8125 0 L 1.8125 -20.34375 L 6.015625 -20.34375 L 14.1875 -6.9375 L 14.1875 -20.34375 L 18.359375 -20.34375 Z M 18.359375 0 "/></g></g></g><g fill="#000000" fill-opacity="1"><g transform="translate(929.561915, 610.635983)"><g><path d="M 14.0625 -8.8125 L 6.015625 -8.8125 L 6.015625 -3.375 L 15.453125 -3.375 L 15.453125 0 L 1.8125 0 L 1.8125 -20.34375 L 15.4375 -20.34375 L 15.4375 -16.953125 L 6.015625 -16.953125 L 6.015625 -12.109375 L 14.0625 -12.109375 Z M 14.0625 -8.8125 "/></g></g></g><g fill="#000000" fill-opacity="1"><g transform="translate(949.266774, 610.635983)"><g><path d="M 12.375 -5.34375 C 12.375 -6.132812 12.09375 -6.738281 11.53125 -7.15625 C 10.96875 -7.582031 9.957031 -8.03125 8.5 -8.5 C 7.050781 -8.96875 5.90625 -9.429688 5.0625 -9.890625 C 2.75 -11.140625 1.59375 -12.820312 1.59375 -14.9375 C 1.59375 -16.039062 1.898438 -17.019531 2.515625 -17.875 C 3.140625 -18.738281 4.03125 -19.410156 5.1875 -19.890625 C 6.351562 -20.378906 7.65625 -20.625 9.09375 -20.625 C 10.550781 -20.625 11.847656 -20.359375 12.984375 -19.828125 C 14.117188 -19.304688 15 -18.566406 15.625 -17.609375 C 16.257812 -16.648438 16.578125 -15.5625 16.578125 -14.34375 L 12.390625 -14.34375 C 12.390625 -15.269531 12.09375 -15.992188 11.5 -16.515625 C 10.914062 -17.035156 10.09375 -17.296875 9.03125 -17.296875 C 8 -17.296875 7.195312 -17.078125 6.625 -16.640625 C 6.0625 -16.203125 5.78125 -15.628906 5.78125 -14.921875 C 5.78125 -14.265625 6.113281 -13.710938 6.78125 -13.265625 C 7.445312 -12.816406 8.429688 -12.394531 9.734375 -12 C 12.117188 -11.289062 13.851562 -10.40625 14.9375 -9.34375 C 16.03125 -8.28125 16.578125 -6.957031 16.578125 -5.375 C 16.578125 -3.601562 15.910156 -2.21875 14.578125 -1.21875 C 13.242188 -0.21875 11.453125 0.28125 9.203125 0.28125 C 7.628906 0.28125 6.195312 -0.00390625 4.90625 -0.578125 C 3.625 -1.148438 2.644531 -1.9375 1.96875 -2.9375 C 1.300781 -3.9375 0.96875 -5.09375 0.96875 -6.40625 L 5.171875 -6.40625 C 5.171875 -4.15625 6.515625 -3.03125 9.203125 -3.03125 C 10.191406 -3.03125 10.96875 -3.234375 11.53125 -3.640625 C 12.09375 -4.046875 12.375 -4.613281 12.375 -5.34375 Z M 12.375 -5.34375 "/></g></g></g><g fill="#000000" fill-opacity="1"><g transform="translate(705.292765, 650.38598)"><g/></g></g><g fill="#000000" fill-opacity="1"><g transform="translate(716.027139, 650.38598)"><g><path d="M 17.140625 -16.953125 L 10.90625 -16.953125 L 10.90625 0 L 6.703125 0 L 6.703125 -16.953125 L 0.5625 -16.953125 L 0.5625 -20.34375 L 17.140625 -20.34375 Z M 17.140625 -16.953125 "/></g></g></g><g fill="#000000" fill-opacity="1"><g transform="translate(737.33892, 650.38598)"><g><path d="M 14.0625 -8.8125 L 6.015625 -8.8125 L 6.015625 -3.375 L 15.453125 -3.375 L 15.453125 0 L 1.8125 0 L 1.8125 -20.34375 L 15.4375 -20.34375 L 15.4375 -16.953125 L 6.015625 -16.953125 L 6.015625 -12.109375 L 14.0625 -12.109375 Z M 14.0625 -8.8125 "/></g></g></g><g fill="#000000" fill-opacity="1"><g transform="translate(757.043779, 650.38598)"><g><path d="M 17.796875 -6.78125 C 17.640625 -4.59375 16.832031 -2.867188 15.375 -1.609375 C 13.914062 -0.347656 11.992188 0.28125 9.609375 0.28125 C 6.992188 0.28125 4.9375 -0.59375 3.4375 -2.34375 C 1.945312 -4.101562 1.203125 -6.519531 1.203125 -9.59375 L 1.203125 -10.828125 C 1.203125 -12.785156 1.546875 -14.507812 2.234375 -16 C 2.921875 -17.488281 3.90625 -18.628906 5.1875 -19.421875 C 6.46875 -20.222656 7.957031 -20.625 9.65625 -20.625 C 12.007812 -20.625 13.898438 -19.992188 15.328125 -18.734375 C 16.765625 -17.484375 17.597656 -15.722656 17.828125 -13.453125 L 13.625 -13.453125 C 13.519531 -14.765625 13.15625 -15.710938 12.53125 -16.296875 C 11.90625 -16.890625 10.945312 -17.1875 9.65625 -17.1875 C 8.257812 -17.1875 7.210938 -16.6875 6.515625 -15.6875 C 5.828125 -14.6875 5.472656 -13.132812 5.453125 -11.03125 L 5.453125 -9.484375 C 5.453125 -7.285156 5.785156 -5.675781 6.453125 -4.65625 C 7.117188 -3.644531 8.171875 -3.140625 9.609375 -3.140625 C 10.898438 -3.140625 11.863281 -3.4375 12.5 -4.03125 C 13.132812 -4.625 13.5 -5.539062 13.59375 -6.78125 Z M 17.796875 -6.78125 "/></g></g></g><g fill="#000000" fill-opacity="1"><g transform="translate(779.375606, 650.38598)"><g><path d="M 18.359375 0 L 14.171875 0 L 6.015625 -13.390625 L 6.015625 0 L 1.8125 0 L 1.8125 -20.34375 L 6.015625 -20.34375 L 14.1875 -6.9375 L 14.1875 -20.34375 L 18.359375 -20.34375 Z M 18.359375 0 "/></g></g></g><g fill="#000000" fill-opacity="1"><g transform="translate(803.188596, 650.38598)"><g><path d="M 18.53125 -9.71875 C 18.53125 -7.707031 18.175781 -5.945312 17.46875 -4.4375 C 16.757812 -2.9375 15.742188 -1.773438 14.421875 -0.953125 C 13.109375 -0.128906 11.597656 0.28125 9.890625 0.28125 C 8.203125 0.28125 6.695312 -0.125 5.375 -0.9375 C 4.050781 -1.75 3.023438 -2.90625 2.296875 -4.40625 C 1.578125 -5.914062 1.210938 -7.648438 1.203125 -9.609375 L 1.203125 -10.609375 C 1.203125 -12.609375 1.5625 -14.367188 2.28125 -15.890625 C 3.007812 -17.421875 4.03125 -18.59375 5.34375 -19.40625 C 6.664062 -20.21875 8.171875 -20.625 9.859375 -20.625 C 11.554688 -20.625 13.0625 -20.21875 14.375 -19.40625 C 15.695312 -18.59375 16.71875 -17.421875 17.4375 -15.890625 C 18.164062 -14.367188 18.53125 -12.613281 18.53125 -10.625 Z M 14.28125 -10.640625 C 14.28125 -12.773438 13.898438 -14.394531 13.140625 -15.5 C 12.378906 -16.601562 11.289062 -17.15625 9.875 -17.15625 C 8.457031 -17.15625 7.367188 -16.609375 6.609375 -15.515625 C 5.847656 -14.421875 5.460938 -12.816406 5.453125 -10.703125 L 5.453125 -9.71875 C 5.453125 -7.632812 5.832031 -6.019531 6.59375 -4.875 C 7.363281 -3.726562 8.460938 -3.15625 9.890625 -3.15625 C 11.296875 -3.15625 12.375 -3.707031 13.125 -4.8125 C 13.882812 -5.914062 14.269531 -7.523438 14.28125 -9.640625 Z M 14.28125 -10.640625 "/></g></g></g><g fill="#000000" fill-opacity="1"><g transform="translate(826.554443, 650.38598)"><g><path d="M 6.015625 -3.375 L 14.90625 -3.375 L 14.90625 0 L 1.8125 0 L 1.8125 -20.34375 L 6.015625 -20.34375 Z M 6.015625 -3.375 "/></g></g></g><g fill="#000000" fill-opacity="1"><g transform="translate(845.658453, 650.38598)"><g><path d="M 18.53125 -9.71875 C 18.53125 -7.707031 18.175781 -5.945312 17.46875 -4.4375 C 16.757812 -2.9375 15.742188 -1.773438 14.421875 -0.953125 C 13.109375 -0.128906 11.597656 0.28125 9.890625 0.28125 C 8.203125 0.28125 6.695312 -0.125 5.375 -0.9375 C 4.050781 -1.75 3.023438 -2.90625 2.296875 -4.40625 C 1.578125 -5.914062 1.210938 -7.648438 1.203125 -9.609375 L 1.203125 -10.609375 C 1.203125 -12.609375 1.5625 -14.367188 2.28125 -15.890625 C 3.007812 -17.421875 4.03125 -18.59375 5.34375 -19.40625 C 6.664062 -20.21875 8.171875 -20.625 9.859375 -20.625 C 11.554688 -20.625 13.0625 -20.21875 14.375 -19.40625 C 15.695312 -18.59375 16.71875 -17.421875 17.4375 -15.890625 C 18.164062 -14.367188 18.53125 -12.613281 18.53125 -10.625 Z M 14.28125 -10.640625 C 14.28125 -12.773438 13.898438 -14.394531 13.140625 -15.5 C 12.378906 -16.601562 11.289062 -17.15625 9.875 -17.15625 C 8.457031 -17.15625 7.367188 -16.609375 6.609375 -15.515625 C 5.847656 -14.421875 5.460938 -12.816406 5.453125 -10.703125 L 5.453125 -9.71875 C 5.453125 -7.632812 5.832031 -6.019531 6.59375 -4.875 C 7.363281 -3.726562 8.460938 -3.15625 9.890625 -3.15625 C 11.296875 -3.15625 12.375 -3.707031 13.125 -4.8125 C 13.882812 -5.914062 14.269531 -7.523438 14.28125 -9.640625 Z M 14.28125 -10.640625 "/></g></g></g><g fill="#000000" fill-opacity="1"><g transform="translate(869.024299, 650.38598)"><g><path d="M 17.921875 -2.578125 C 17.160156 -1.671875 16.09375 -0.96875 14.71875 -0.46875 C 13.34375 0.03125 11.816406 0.28125 10.140625 0.28125 C 8.367188 0.28125 6.820312 -0.101562 5.5 -0.875 C 4.175781 -1.644531 3.148438 -2.757812 2.421875 -4.21875 C 1.703125 -5.6875 1.332031 -7.40625 1.3125 -9.375 L 1.3125 -10.765625 C 1.3125 -12.796875 1.65625 -14.550781 2.34375 -16.03125 C 3.03125 -17.519531 4.015625 -18.65625 5.296875 -19.4375 C 6.585938 -20.226562 8.101562 -20.625 9.84375 -20.625 C 12.25 -20.625 14.132812 -20.046875 15.5 -18.890625 C 16.863281 -17.742188 17.671875 -16.070312 17.921875 -13.875 L 13.84375 -13.875 C 13.65625 -15.039062 13.238281 -15.894531 12.59375 -16.4375 C 11.957031 -16.976562 11.082031 -17.25 9.96875 -17.25 C 8.539062 -17.25 7.453125 -16.710938 6.703125 -15.640625 C 5.960938 -14.566406 5.585938 -12.972656 5.578125 -10.859375 L 5.578125 -9.5625 C 5.578125 -7.425781 5.984375 -5.8125 6.796875 -4.71875 C 7.609375 -3.632812 8.796875 -3.09375 10.359375 -3.09375 C 11.929688 -3.09375 13.050781 -3.425781 13.71875 -4.09375 L 13.71875 -7.609375 L 9.90625 -7.609375 L 9.90625 -10.6875 L 17.921875 -10.6875 Z M 17.921875 -2.578125 "/></g></g></g><g fill="#000000" fill-opacity="1"><g transform="translate(892.124654, 650.38598)"><g><path d="M 6.28125 0 L 2.078125 0 L 2.078125 -20.34375 L 6.28125 -20.34375 Z M 6.28125 0 "/></g></g></g><g fill="#000000" fill-opacity="1"><g transform="translate(904.074368, 650.38598)"><g><path d="M 17.796875 -6.78125 C 17.640625 -4.59375 16.832031 -2.867188 15.375 -1.609375 C 13.914062 -0.347656 11.992188 0.28125 9.609375 0.28125 C 6.992188 0.28125 4.9375 -0.59375 3.4375 -2.34375 C 1.945312 -4.101562 1.203125 -6.519531 1.203125 -9.59375 L 1.203125 -10.828125 C 1.203125 -12.785156 1.546875 -14.507812 2.234375 -16 C 2.921875 -17.488281 3.90625 -18.628906 5.1875 -19.421875 C 6.46875 -20.222656 7.957031 -20.625 9.65625 -20.625 C 12.007812 -20.625 13.898438 -19.992188 15.328125 -18.734375 C 16.765625 -17.484375 17.597656 -15.722656 17.828125 -13.453125 L 13.625 -13.453125 C 13.519531 -14.765625 13.15625 -15.710938 12.53125 -16.296875 C 11.90625 -16.890625 10.945312 -17.1875 9.65625 -17.1875 C 8.257812 -17.1875 7.210938 -16.6875 6.515625 -15.6875 C 5.828125 -14.6875 5.472656 -13.132812 5.453125 -11.03125 L 5.453125 -9.484375 C 5.453125 -7.285156 5.785156 -5.675781 6.453125 -4.65625 C 7.117188 -3.644531 8.171875 -3.140625 9.609375 -3.140625 C 10.898438 -3.140625 11.863281 -3.4375 12.5 -4.03125 C 13.132812 -4.625 13.5 -5.539062 13.59375 -6.78125 Z M 17.796875 -6.78125 "/></g></g></g><g fill="#000000" fill-opacity="1"><g transform="translate(926.406195, 650.38598)"><g><path d="M 13.3125 -4.1875 L 5.953125 -4.1875 L 4.5625 0 L 0.09375 0 L 7.671875 -20.34375 L 11.5625 -20.34375 L 19.171875 0 L 14.71875 0 Z M 7.09375 -7.59375 L 12.171875 -7.59375 L 9.609375 -15.203125 Z M 7.09375 -7.59375 "/></g></g></g><g fill="#000000" fill-opacity="1"><g transform="translate(949.269017, 650.38598)"><g><path d="M 12.375 -5.34375 C 12.375 -6.132812 12.09375 -6.738281 11.53125 -7.15625 C 10.96875 -7.582031 9.957031 -8.03125 8.5 -8.5 C 7.050781 -8.96875 5.90625 -9.429688 5.0625 -9.890625 C 2.75 -11.140625 1.59375 -12.820312 1.59375 -14.9375 C 1.59375 -16.039062 1.898438 -17.019531 2.515625 -17.875 C 3.140625 -18.738281 4.03125 -19.410156 5.1875 -19.890625 C 6.351562 -20.378906 7.65625 -20.625 9.09375 -20.625 C 10.550781 -20.625 11.847656 -20.359375 12.984375 -19.828125 C 14.117188 -19.304688 15 -18.566406 15.625 -17.609375 C 16.257812 -16.648438 16.578125 -15.5625 16.578125 -14.34375 L 12.390625 -14.34375 C 12.390625 -15.269531 12.09375 -15.992188 11.5 -16.515625 C 10.914062 -17.035156 10.09375 -17.296875 9.03125 -17.296875 C 8 -17.296875 7.195312 -17.078125 6.625 -16.640625 C 6.0625 -16.203125 5.78125 -15.628906 5.78125 -14.921875 C 5.78125 -14.265625 6.113281 -13.710938 6.78125 -13.265625 C 7.445312 -12.816406 8.429688 -12.394531 9.734375 -12 C 12.117188 -11.289062 13.851562 -10.40625 14.9375 -9.34375 C 16.03125 -8.28125 16.578125 -6.957031 16.578125 -5.375 C 16.578125 -3.601562 15.910156 -2.21875 14.578125 -1.21875 C 13.242188 -0.21875 11.453125 0.28125 9.203125 0.28125 C 7.628906 0.28125 6.195312 -0.00390625 4.90625 -0.578125 C 3.625 -1.148438 2.644531 -1.9375 1.96875 -2.9375 C 1.300781 -3.9375 0.96875 -5.09375 0.96875 -6.40625 L 5.171875 -6.40625 C 5.171875 -4.15625 6.515625 -3.03125 9.203125 -3.03125 C 10.191406 -3.03125 10.96875 -3.234375 11.53125 -3.640625 C 12.09375 -4.046875 12.375 -4.613281 12.375 -5.34375 Z M 12.375 -5.34375 "/></g></g></g></svg>